<?xml version="1.0" encoding="utf-8"?>
<!-- Designed by Vexels.com - 2016 All Rights Reserved - https://vexels.com/terms-and-conditions/  -->

<svg version="1.0" id="Capa_1" xmlns="http://www.w3.org/2000/svg" xmlns:xlink="http://www.w3.org/1999/xlink" x="0px" y="0px"
	 width="1200px" height="1200px" viewBox="0 0 1200 1200" enable-background="new 0 0 1200 1200" xml:space="preserve">
<g>
	<path fill-rule="evenodd" clip-rule="evenodd" fill="#252233" d="M297.915,625.343v169.995h11.865v-70.231h26.275
		c20.454,0,36.282-4.388,47.433-13.142c11.16-8.754,16.74-21.355,16.74-37.787c0-32.569-20.221-48.835-60.692-48.835H297.915z
		 M387.444,674.638c0,14.191-4.259,24.441-12.776,30.757c-8.544,6.316-22.391,9.481-41.523,9.481H309.78v-78.829h28.132
		c16.883,0,29.382,3.152,37.443,9.468C383.408,651.837,387.444,661.541,387.444,674.638z"/>
	<rect x="444.358" y="625.344" fill-rule="evenodd" clip-rule="evenodd" fill="#252233" width="11.847" height="169.995"/>
	<polygon fill-rule="evenodd" clip-rule="evenodd" fill="#252233" points="615.094,784.183 512.657,784.183 612.416,634.178 
		612.416,625.343 501.496,625.343 501.496,636.508 596.498,636.508 496.962,786.504 496.962,795.338 615.094,795.338 	"/>
	<polygon fill-rule="evenodd" clip-rule="evenodd" fill="#252233" points="759.449,784.183 657.011,784.183 756.761,634.178 
		756.761,625.343 645.851,625.343 645.851,636.508 740.834,636.508 641.316,786.504 641.316,795.338 759.449,795.338 	"/>
	<path fill-rule="evenodd" clip-rule="evenodd" fill="#252233" d="M812.98,735.339h69.066l23.597,59.999h13.382l-66.976-170.686
		h-7.562l-68.369,170.686h13.133L812.98,735.339z M841.112,663.604c2.49-6.045,4.768-12.798,6.866-20.235
		c2.705,8.526,5.035,15.195,6.973,19.998l23.131,61.268h-60.799L841.112,663.604z"/>
	<path fill-rule="evenodd" clip-rule="evenodd" fill="#252233" d="M517.835,178.737c7.365,0,45.139,0,82.163,0
		c37.015,0,74.788,0,82.135,0c-1.625-52.403,28.266-103.028,28.266-103.028c-3.704,3.933-7.151,7.535-10.392,10.87
		c0.09-0.469,0.116-0.951,0.116-1.46c0-4.656-3.393-8.428-7.589-8.428s-7.588,3.772-7.588,8.428c0,4.661,3.392,8.433,7.588,8.433
		c0.241,0,0.464-0.045,0.697-0.067c-42.97,43.041-41.765,27.408-41.514-12.053c0.536,0.125,1.081,0.192,1.643,0.192
		c4.204,0,7.589-3.763,7.589-8.419c0-4.669-3.384-8.441-7.589-8.441c-4.205,0-7.589,3.772-7.589,8.441
		c0,2.75,1.205,5.161,3.027,6.691c-19.401,35.038-26.435,35.511-41.729-4.044c1.785,1.134,3.83,1.852,6.071,1.852
		c6.785,0,12.284-6.129,12.284-13.668c0-6.692-4.312-12.214-10.017-13.41c2.536-10.129-9.106-20.405-15.409-26.074
		c-6.303,5.669-17.954,15.946-15.41,26.074c-5.714,1.196-10.053,6.718-10.053,13.41c0,7.539,5.526,13.668,12.329,13.668
		c2.206,0,4.268-0.719,6.062-1.852c-15.284,39.554-22.337,39.082-41.737,4.044c1.83-1.53,3.044-3.941,3.044-6.691
		c0-4.669-3.419-8.441-7.615-8.441s-7.58,3.772-7.58,8.441c0,4.656,3.383,8.419,7.58,8.419c0.589,0,1.116-0.067,1.634-0.192
		c0.268,39.461,1.473,55.094-41.497,12.053c0.224,0.022,0.447,0.067,0.706,0.067c4.169,0,7.58-3.772,7.58-8.433
		c0-4.656-3.411-8.428-7.58-8.428c-4.214,0-7.615,3.772-7.615,8.428c0,0.509,0.062,0.991,0.143,1.46
		c-3.25-3.335-6.687-6.937-10.383-10.87C489.605,75.71,519.469,126.335,517.835,178.737z M599.998,106.912l9.097,21.703
		l-9.097,21.704l-9.106-21.713L599.998,106.912z"/>
	<path fill-rule="evenodd" clip-rule="evenodd" fill="#252233" d="M473.419,874.328c0.33,0,0.607-0.134,0.821-0.42
		c0.241-0.282,0.339-0.612,0.339-0.986c0-0.867-0.384-1.295-1.16-1.295h-20.114c-0.911,0-1.358,0.411-1.358,1.231v38.778
		c0,0.844,0.447,1.263,1.358,1.263h20.114c0.776,0,1.16-0.432,1.16-1.299c0-0.384-0.098-0.719-0.339-0.996
		c-0.214-0.281-0.491-0.42-0.821-0.42h-18.651v-16.654h8.973c0.785,0,1.196-0.411,1.196-1.25c0-0.367-0.116-0.701-0.339-0.96
		c-0.241-0.255-0.508-0.384-0.857-0.384h-8.973v-16.61H473.419z"/>
	<path fill-rule="evenodd" clip-rule="evenodd" fill="#252233" d="M500.479,901.763c0-2.143-0.357-3.969-1.053-5.486
		c-0.688-1.54-1.607-2.71-2.714-3.54c-1.098-0.822-2.321-1.522-3.705-2.081c-1.357-0.576-2.678-1.076-4.035-1.539
		c-1.321-0.452-2.553-0.951-3.66-1.527c-1.124-0.559-2.009-1.362-2.713-2.393c-0.706-1.03-1.054-2.325-1.054-3.856
		c0-2.567,0.839-4.375,2.491-5.46c1.669-1.067,3.714-1.607,6.16-1.607c1.455,0,2.804,0.183,3.982,0.54
		c1.188,0.353,2.098,0.719,2.741,1.067c0.634,0.375,1.071,0.54,1.231,0.54c0.339,0,0.652-0.192,0.911-0.558
		c0.26-0.376,0.393-0.732,0.393-1.085c0-0.826-0.973-1.562-2.91-2.219c-1.938-0.669-4.044-0.986-6.313-0.986
		c-1.392,0-2.687,0.13-3.901,0.42c-1.242,0.282-2.429,0.768-3.651,1.46c-1.188,0.709-2.169,1.732-2.893,3.111
		c-0.687,1.361-1.053,3.04-1.053,4.995c0,2.188,0.474,3.986,1.401,5.419c0.965,1.433,2.134,2.455,3.509,3.085
		c1.401,0.62,2.92,1.25,4.545,1.888c1.643,0.638,3.151,1.263,4.562,1.853c1.384,0.612,2.544,1.606,3.491,2.986
		c0.928,1.415,1.419,3.165,1.419,5.259c0,2.799-0.785,4.901-2.312,6.33c-1.572,1.433-3.786,2.156-6.669,2.156
		c-1.669,0-3.134-0.254-4.384-0.74c-1.25-0.491-2.179-1.049-2.75-1.643l-1.518-1.634c-0.437-0.491-0.785-0.737-1.018-0.737
		c-0.294,0-0.571,0.165-0.884,0.518c-0.268,0.339-0.429,0.678-0.429,1.062c0,1.129,1.081,2.397,3.205,3.777
		c2.143,1.397,4.803,2.097,8.062,2.097c3.481,0,6.276-0.946,8.365-2.848C499.425,908.49,500.479,905.607,500.479,901.763z"/>
	<path fill-rule="evenodd" clip-rule="evenodd" fill="#252233" d="M515.897,912.9c0.938,0,1.429-0.42,1.429-1.263v-37.309h9.687
		c0.794,0,1.178-0.474,1.178-1.406c0-0.867-0.384-1.295-1.178-1.295h-22.347c-0.348,0-0.634,0.129-0.847,0.392
		c-0.241,0.272-0.331,0.585-0.331,0.96c0,0.367,0.09,0.692,0.331,0.955c0.214,0.268,0.499,0.393,0.847,0.393h9.82v37.309
		C514.486,912.48,514.951,912.9,515.897,912.9z"/>
	<path fill-rule="evenodd" clip-rule="evenodd" fill="#252233" d="M532.396,911.878c0.232,0.263,0.509,0.398,0.848,0.398h20.508
		c0.821,0,1.196-0.474,1.196-1.42c0-0.861-0.375-1.299-1.196-1.299h-20.508c-0.339,0-0.616,0.13-0.848,0.401
		c-0.223,0.264-0.339,0.576-0.339,0.96C532.056,911.285,532.172,911.61,532.396,911.878z"/>
	<path fill-rule="evenodd" clip-rule="evenodd" fill="#252233" d="M533.414,904.08h9.981c3.464,0,6.213-0.955,8.294-2.862
		c2.062-1.902,3.142-4.901,3.142-9.009v-8.727c0-4.115-1.08-7.111-3.142-9.008c-2.081-1.897-4.83-2.848-8.294-2.848h-9.981
		c-0.367,0-0.715,0.112-0.974,0.366c-0.259,0.237-0.384,0.518-0.384,0.822v30.073c0,0.299,0.125,0.562,0.384,0.822
		C532.699,903.945,533.047,904.08,533.414,904.08z M534.878,874.328h8.518c2.785,0,4.856,0.759,6.357,2.295
		c1.499,1.522,2.241,3.803,2.241,6.86v8.727c0,3.058-0.741,5.33-2.241,6.879c-1.5,1.518-3.572,2.272-6.357,2.272h-8.518V874.328z"/>
	<path fill-rule="evenodd" clip-rule="evenodd" fill="#252233" d="M650.323,912.86c0.911,0,1.393-0.411,1.393-1.231v-38.849
		c0-0.786-0.393-1.197-1.242-1.197c-0.562,0-0.999,0.308-1.357,0.92l-4.187,6.874c-0.464,0.567-0.669,1.059-0.669,1.478
		c0,0.339,0.124,0.629,0.375,0.906c0.24,0.254,0.544,0.392,0.857,0.392c0.474,0,0.786-0.25,1.018-0.723l2.392-4.079v34.278
		C648.904,912.449,649.369,912.86,650.323,912.86z"/>
	<path fill-rule="evenodd" clip-rule="evenodd" fill="#252233" d="M672.545,910.498c-2.392,0-4.437-0.638-6.079-1.919
		c-1.661-1.286-2.5-2.928-2.5-4.973c0-0.875-0.482-1.295-1.464-1.295c-0.866,0-1.294,0.483-1.294,1.415
		c0,2.611,1.027,4.875,3.044,6.709c2.044,1.839,4.776,2.772,8.232,2.772c3.473,0,6.25-0.942,8.329-2.839
		c2.08-1.915,3.089-4.919,3.089-9.026v-17.905c0-4.08-1.009-7.103-3.089-9c-2.08-1.897-4.856-2.857-8.329-2.857
		c-3.428,0-6.152,0.96-8.214,2.857c-2.035,1.897-3.062,4.919-3.062,9v1.487c0,7.445,3.696,11.173,11.07,11.173
		c4.018,0,6.982-1.335,8.812-4.008v9.254C681.089,907.441,678.259,910.498,672.545,910.498z M672.545,893.504
		c-2.776,0-4.892-0.674-6.347-2.026c-1.438-1.353-2.161-3.558-2.161-6.589v-1.518c0-3.044,0.723-5.316,2.17-6.816
		c1.49-1.513,3.562-2.254,6.276-2.254c2.767,0,4.865,0.741,6.347,2.254c1.508,1.5,2.259,3.772,2.259,6.816v2.018
		C681.089,890.795,678.259,893.504,672.545,893.504z"/>
	<path fill-rule="evenodd" clip-rule="evenodd" fill="#252233" d="M709.614,890.357c3.267-1.433,4.91-4.419,4.91-8.972
		c0-6.527-3.464-9.803-10.356-9.803c-6.857,0-10.249,3.277-10.249,9.803c0,4.553,1.616,7.539,4.91,8.972
		c-4,1.629-6.017,5.129-6.017,10.522v0.683c0,4,1.045,6.928,3.125,8.816c2.053,1.889,4.821,2.83,8.232,2.83
		c3.464,0,6.231-0.942,8.285-2.83c2.054-1.888,3.063-4.816,3.063-8.816v-0.683C715.515,895.486,713.551,891.987,709.614,890.357z
		 M696.713,881.559c0-4.919,2.499-7.366,7.454-7.366c5.017,0,7.526,2.446,7.526,7.366c0,4.991-2.509,7.482-7.526,7.482
		C699.213,889.041,696.713,886.55,696.713,881.559z M712.712,901.455c0,3.017-0.751,5.294-2.214,6.834
		c-1.482,1.545-3.58,2.317-6.268,2.317c-2.705,0-4.821-0.772-6.33-2.289c-1.499-1.522-2.232-3.804-2.232-6.861v-0.732
		c0-5.986,2.84-8.964,8.499-8.964c5.678,0,8.544,2.978,8.544,8.964V901.455z"/>
	<path fill-rule="evenodd" clip-rule="evenodd" fill="#252233" d="M745.253,912.44c0.241-0.272,0.376-0.584,0.376-0.928
		c0-0.375-0.134-0.697-0.357-0.969c-0.214-0.254-0.482-0.384-0.794-0.384h-18.615v-4.012c0-1.197,0.474-2.42,1.42-3.679
		c0.982-1.232,2.169-2.33,3.58-3.317l4.661-3.339c1.643-1.277,3.196-2.518,4.58-3.723c1.419-1.206,2.597-2.674,3.562-4.407
		c0.955-1.736,1.446-3.544,1.446-5.423c0-2.973-1.018-5.486-3.053-7.567c-2.027-2.071-4.66-3.111-7.848-3.111
		c-2.928,0-5.366,0.875-7.321,2.611c-1.937,1.732-2.893,3.888-2.893,6.486c0,1.281,0.429,1.928,1.286,1.928
		c0.508,0,0.875-0.138,1.143-0.375c0.259-0.245,0.384-0.504,0.384-0.804c0-2.317,0.678-4.062,2.009-5.294
		c1.321-1.223,3.107-1.834,5.276-1.834c2.616,0,4.625,0.812,6.045,2.428c1.437,1.625,2.151,3.495,2.151,5.651
		c0,1.612-0.491,3.183-1.437,4.692c-0.964,1.496-2.134,2.808-3.563,3.933l-4.607,3.566l-4.624,3.504
		c-1.42,1.09-2.625,2.339-3.598,3.755c-0.937,1.411-1.42,2.852-1.42,4.317v5.482c0,0.357,0.125,0.66,0.429,0.897
		c0.277,0.228,0.562,0.335,0.911,0.335h20.097C744.753,912.86,745.013,912.717,745.253,912.44z"/>
	<path fill-rule="evenodd" clip-rule="evenodd" fill="#252233" d="M596.069,838.844v106.755c0,1.415,1.143,2.531,2.544,2.531
		c1.401,0,2.544-1.115,2.544-2.531V838.844c0-1.406-1.143-2.544-2.544-2.544C597.212,836.299,596.069,837.438,596.069,838.844z"/>
	<path fill-rule="evenodd" clip-rule="evenodd" fill="#252233" d="M1104.875,725.438c2.991-16.994,5.17-34.252,6.455-51.732
		c31.604,6.089,48.513-6.46,57.209-18.847c15.534-22.087,12.928-54.219,12.803-55.562l-0.652-7.638l-7.668-0.21
		c-1.571-0.058-37.604-0.629-60.523,27.225c-0.571-17.543-2.071-34.921-4.384-52.089c32.203-0.589,46.148-16.383,52.094-30.319
		c10.57-24.833,1.384-55.719,0.973-57.013l-2.232-7.33l-7.544,1.388c-1.553,0.272-36.934,7.2-53.558,39.256
		c-4.205-16.994-9.249-33.707-15.115-50.089c31.399-7.263,41.747-25.601,44.666-40.483c5.178-26.489-10.24-54.79-10.909-55.974
		l-3.705-6.719l-7.098,2.937c-1.446,0.594-34.639,14.732-44.238,49.577c-7.615-15.718-16.025-31.037-25.185-45.89
		c29.193-13.624,35.514-33.724,35.282-48.893c-0.437-26.985-21.409-51.455-22.292-52.478l-5.026-5.785l-6.366,4.343
		c-1.277,0.879-30.792,21.596-32.944,57.656c-12.196-15.745-25.337-30.779-39.372-45.041c21.248-16.521,22.909-34.269,20.017-46.821
		c-5.214-22.713-27.293-39.6-28.239-40.301l-5.285-3.991l-4.571,4.803c-0.911,0.982-21.534,23.052-17.704,53.17
		c-15.669-13.168-32.203-25.426-49.515-36.733c16.062-19.092,14.151-35.502,9.116-46.336c-9.116-19.596-32.408-30.667-33.399-31.122
		l-5.562-2.603l-3.214,5.241c-0.678,1.058-15.132,25.132-5.802,51.745c-11.285-6.022-22.838-11.655-34.659-16.864
		c-3.24-1.415-7.07,0.027-8.499,3.295c-1.438,3.267,0.027,7.061,3.294,8.503c11.285,4.969,22.32,10.334,33.078,16.057
		c-27.48,4.79-42.077,29.234-42.265,29.569l-3.089,5.312l4.938,3.67c1.169,0.848,28.837,21.118,53.639,12.584
		c11.588-3.969,20.284-13.37,26.016-27.842c16.838,11.031,32.917,22.99,48.148,35.828c-31.042-2.116-52.746,21.239-53.014,21.57
		l-4.455,4.892l4.393,4.973c1.036,1.165,25.65,28.738,53.746,25.288c13.338-1.616,24.783-9.884,34.158-24.36
		c13.713,13.968,26.57,28.703,38.488,44.131c-35.319-11.017-66.494,10.878-66.906,11.186l-6.205,4.5l3.759,6.683
		c0.901,1.558,22.168,38.742,54.817,41.59c15.695,1.415,30.792-5.375,45.05-19.825c8.883,14.467,17.016,29.368,24.399,44.684
		c-32.256-18.097-67.262-3.165-67.717-2.955l-7.008,3.102l2.286,7.33c0.554,1.723,13.624,42.51,44.97,52.085
		c15.043,4.634,31.229,1.147,48.174-10.03c5.678,15.945,10.562,32.243,14.605,48.8c-27.783-24.44-65.146-17.092-65.655-16.994
		l-7.49,1.58l0.705,7.647c0.187,1.781,4.491,44.403,33.158,60.299c13.757,7.651,30.319,7.607,49.21,0.192
		c2.232,16.758,3.669,33.698,4.187,50.817c-22.096-29.716-60.201-30.31-60.718-30.31l-7.678-0.018l-0.892,7.633
		c-0.197,1.786-4.839,44.354,19.882,65.865c11.909,10.361,28.14,13.772,48.201,10.424c-1.303,17.15-3.526,34.077-6.499,50.754
		c-15.373-33.814-52.648-42.34-53.174-42.448l-7.464-1.615l-2.482,7.281c-0.553,1.719-13.945,42.394,5.75,68.552
		c9.535,12.677,24.82,19.382,45.274,20.221c-4.831,16.641-10.562,32.922-17.061,48.84c-7.795-36.662-42.836-52.906-43.327-53.116
		l-6.973-3.134l-3.919,6.602c-0.92,1.559-22.471,38.569-8.633,68.267c6.713,14.419,20.346,24.168,40.265,29.221
		c-8.241,15.325-17.222,30.212-27.016,44.55c0.205-37.694-30.918-61.022-31.364-61.334l-6.151-4.5l-5.206,5.633
		c-1.223,1.33-29.988,33.055-22.64,64.981c3.58,15.534,14.909,27.908,33.425,37.019c-11.24,13.187-23.204,25.771-35.774,37.756
		c7.928-36.77-17.578-65.977-17.953-66.37l-5.089-5.686l-6.276,4.419c-1.473,1.058-36.203,26.101-35.649,58.865
		c0.268,15.901,8.749,30.337,24.899,43.068c-13.633,10.459-27.855,20.235-42.639,29.297c15.186-34.216-3.589-67.91-3.857-68.374
		l-3.803-6.629l-7.062,3.04c-1.643,0.723-40.827,17.99-47.095,50.161c-3.026,15.525,2.179,31.332,15.195,47.067
		c-21.569,10.258-44.005,19.173-67.36,26.44c-3.411,1.059-5.303,4.674-4.25,8.067c0.858,2.767,3.411,4.535,6.161,4.535
		c0.634,0,1.276-0.08,1.919-0.29c24.239-7.53,47.532-16.811,69.888-27.498c10.534,30.261,29.783,38.586,44.853,39.925
		c26.881,2.411,53.416-15.905,54.54-16.682l6.276-4.397l-3.651-6.745c-0.75-1.388-18.052-32.546-53.263-38.715
		c14.757-9.137,28.989-18.931,42.63-29.427c16.562,27.163,37.051,31.252,51.996,29.453c26.802-3.241,48.961-26.668,49.88-27.654
		l5.232-5.616l-4.973-5.83c-1.008-1.205-24.275-27.935-59.834-26.815c12.428-11.945,24.239-24.466,35.354-37.564
		c21.802,23.052,42.657,22.807,56.906,17.923c25.551-8.732,42.344-36.251,43.032-37.417l3.947-6.58l-6.071-4.665
		c-1.25-0.959-29.47-22.225-63.959-13.829c9.597-14.217,18.4-28.957,26.525-44.108c26.167,18.089,46.559,13.499,59.495,5.759
		c23.168-13.865,33.863-44.282,34.3-45.559l2.51-7.231l-6.92-3.303c-1.401-0.71-33.702-15.731-65.789-0.063
		c6.437-15.945,12.143-32.242,16.954-48.911c29.462,12.361,48.514,3.617,59.567-6.668c19.774-18.374,23.917-50.336,24.078-51.684
		l0.964-7.606l-7.454-1.804C1168.068,711.117,1133.079,703.087,1104.875,725.438z M1123.312,632.7
		c11.82-16.758,30.408-21.86,41.067-23.409c-0.384,10.182-2.571,25.226-9.901,35.667c-8.32,11.799-21.605,15.678-40.479,11.799
		c-0.071-0.447-0.161-0.893-0.232-1.339C1115.669,646.699,1118.848,639.088,1123.312,632.7z M1111.375,523.995
		c8.062-18.856,25.176-27.712,35.274-31.435c1.75,10.039,2.758,25.208-2.268,36.943c-5.678,13.253-17.873,19.833-37.14,19.936
		c-0.16-0.402-0.339-0.812-0.482-1.25C1106.778,539.27,1108.295,531.164,1111.375,523.995z M843.362,231.867
		c-12.437,4.308-27.275-2.42-35.238-6.999c7.374-8.911,25.141-24.718,52.817-14.999c0.25,0.21,0.509,0.42,0.723,0.602
		C857.485,221.935,851.343,229.148,843.362,231.867z M868.823,198.106c-0.312-0.121-0.669-0.254-0.991-0.384
		c-5.302-4.816-9.32-10.066-11.927-15.717c-6.893-14.901-3-29.823,0.196-37.836c6.901,4.343,16.472,11.866,20.766,21.146
		C881.725,175.8,879.082,186.571,868.823,198.106z M920.864,294.875c-14.105,1.745-28.238-8.669-35.613-15.276
		c9.794-7.741,32.06-20.427,59.058-3.973c0.214,0.286,0.446,0.54,0.643,0.794C937.961,287.568,929.873,293.781,920.864,294.875z
		 M955.272,264.984c-0.313-0.209-0.643-0.42-0.974-0.638c-4.499-6.24-7.561-12.677-9.043-19.23
		c-3.928-17.258,3.526-32.113,8.696-39.845c6.285,6.107,14.686,16.2,17.141,26.94C973.869,244.352,968.673,255.119,955.272,264.984z
		 M982.314,376.221c-16.4-1.415-29.935-16.628-36.666-25.881c12.936-6.451,41.219-15.45,67.887,9.709
		c0.152,0.366,0.357,0.723,0.536,1.053C1003.437,372.06,992.787,377.154,982.314,376.221z M1027.57,349.692
		c-3.598-8.187-5.517-16.218-5.633-24.003c-0.277-20.508,11.749-35.551,19.454-43.059c5.678,8.45,12.758,21.9,12.954,34.671
		c0.214,14.41-8.285,25.382-25.828,33.328C1028.203,350.321,1027.864,350.009,1027.57,349.692z M1027.819,461.33
		c-15.757-4.794-25.81-22.498-30.524-32.948c14.017-3.598,43.568-6.527,64.414,23.619c0.08,0.393,0.214,0.785,0.321,1.134
		C1049.336,461.656,1037.855,464.406,1027.819,461.33z M1077.583,444.782c-1.804-8.735-2.018-16.994-0.5-24.641
		c3.955-20.114,18.856-32.337,27.962-38.077c3.794,9.455,7.945,24.074,5.473,36.604c-2.786,14.159-13.365,23.119-32.185,27.234
		C1078.083,445.541,1077.825,445.149,1077.583,444.782z M1054.621,554.037c-14.41-7.968-20.57-27.368-22.99-38.568
		c14.455-0.62,43.961,2.665,58.076,36.497c0,0.402,0.062,0.804,0.08,1.17C1075.601,558.822,1063.816,559.139,1054.621,554.037z
		 M1096.135,656.729c-15.026,2.62-26.641,0.469-34.56-6.432c-12.445-10.789-14.427-31.051-14.472-42.514
		c14.267,2.402,42.434,11.749,49.238,47.773C1096.243,655.948,1096.216,656.368,1096.135,656.729z M830.649,1075.061
		c-0.376,0.13-0.76,0.282-1.107,0.42c-9.777-11.708-13.731-22.842-11.731-33.158c3.133-16.164,19.677-28.021,29.587-33.787
		C852.441,1022.079,858.45,1051.165,830.649,1075.061z M904.704,1110.849c-8.972,4.763-23.105,10.409-35.801,9.263
		c-14.365-1.286-24.39-10.888-30.471-29.168c0.348-0.285,0.706-0.576,1.062-0.852c8.49-2.71,16.686-3.777,24.436-3.094
		C884.34,1088.85,898.072,1102.402,904.704,1110.849z M917.052,1017.534c-0.33,0.21-0.669,0.429-0.999,0.63
		c-11.982-9.401-18.169-19.467-18.347-29.989c-0.321-16.454,13.41-31.506,21.891-39.189
		C927.364,961.178,939.291,988.376,917.052,1017.534z M996.956,1037.141c-7.821,6.526-20.454,14.977-33.123,16.507
		c-14.329,1.728-26.105-5.567-35.845-22.194c0.286-0.357,0.571-0.709,0.822-1.049c7.775-4.419,15.57-7.174,23.292-8.107
		C972.458,1019.847,988.689,1030.256,996.956,1037.141z M989.609,943.299c-0.277,0.282-0.554,0.559-0.839,0.83
		c-13.678-6.708-21.802-15.271-24.177-25.52c-3.732-16.043,6.562-33.604,13.284-42.902
		C988.002,886.028,1005.295,910.159,989.609,943.299z M1071.851,945.862c-6.293,8.008-16.882,18.905-28.952,23.038
		c-13.651,4.665-26.703-0.017-39.693-14.266c0.187-0.393,0.401-0.794,0.615-1.206c6.669-5.923,13.705-10.231,21.061-12.758
		C1044.292,934.046,1062.344,940.853,1071.851,945.862z M1045.167,855.601c-0.25,0.322-0.438,0.675-0.661,0.996
		c-14.776-3.732-24.506-10.414-28.961-19.944c-6.973-14.927-0.563-34.234,4.08-44.72
		C1031.676,799.918,1053.604,819.926,1045.167,855.601z M1079.119,845.7c17.605-10.517,36.657-7.606,47.022-4.691
		c-4.491,9.133-12.597,22.011-23.543,28.565c-12.4,7.392-26.123,5.53-41.782-5.714c0.107-0.429,0.215-0.867,0.358-1.304
		C1066.441,855.356,1072.441,849.704,1079.119,845.7z M1080.833,759.378c-15.249-0.563-26.15-5.085-32.471-13.477
		c-9.927-13.155-7.669-33.385-5.33-44.603c13.454,5.322,39.068,20.325,38.211,56.977
		C1081.101,758.632,1080.958,759.025,1080.833,759.378z M1140.338,759.988c-10.58,9.812-24.391,10.834-42.059,3.103
		c0.036-0.437,0.045-0.884,0.089-1.339c3.66-8.133,8.339-14.932,14.052-20.217c15.026-13.963,34.275-15.074,45.006-14.382
		C1154.952,737.035,1149.685,751.302,1140.338,759.988z"/>
	<path fill-rule="evenodd" clip-rule="evenodd" fill="#252233" d="M451.224,1112.5c-23.355-7.267-45.862-16.11-67.423-26.377
		c13.053-15.745,18.284-31.587,15.258-47.13c-6.268-32.171-45.452-49.438-47.095-50.161l-7.062-3.04l-3.803,6.629
		c-0.276,0.464-19.088,34.207-3.848,68.441c-14.793-9.075-29.015-18.882-42.657-29.354c16.15-12.74,24.641-27.177,24.899-43.078
		c0.563-32.764-34.167-57.807-35.64-58.865l-6.276-4.419l-5.089,5.686c-0.366,0.393-25.908,29.636-17.936,66.433
		c-12.588-11.999-24.551-24.623-35.791-37.819c18.516-9.111,29.837-21.485,33.425-37.019c7.348-31.926-21.417-63.651-22.64-64.981
		l-5.206-5.633l-6.151,4.5c-0.464,0.313-31.569,23.641-31.364,61.334c-9.785-14.339-18.775-29.226-27.033-44.55
		c19.936-5.053,33.569-14.802,40.282-29.221c13.838-29.698-7.722-66.708-8.633-68.267l-3.928-6.602l-6.964,3.134
		c-0.491,0.209-35.559,16.454-43.335,53.116c-6.491-15.918-12.222-32.198-17.07-48.84c20.471-0.839,35.756-7.544,45.273-20.221
		c19.713-26.158,6.321-66.833,5.749-68.552l-2.464-7.281l-7.473,1.615c-0.517,0.108-37.809,8.634-53.183,42.448
		c-2.981-16.677-5.178-33.605-6.481-50.754c20.061,3.348,36.301-0.063,48.201-10.424c24.712-21.511,20.079-64.079,19.882-65.865
		l-0.911-7.633l-7.651,0.018c-0.527,0-38.631,0.594-60.727,30.31c0.527-17.119,1.955-34.06,4.17-50.817
		c18.909,7.415,35.47,7.459,49.237-0.192c28.659-15.896,32.953-58.518,33.149-60.299l0.705-7.647l-7.499-1.58
		c-0.491-0.098-37.871-7.446-65.646,17.003c4.044-16.566,8.927-32.863,14.596-48.809c16.954,11.178,33.132,14.664,48.175,10.03
		c31.355-9.575,44.425-50.362,44.978-52.085l2.276-7.33l-6.999-3.102c-0.464-0.21-35.48-15.142-67.727,2.955
		c7.383-15.316,15.525-30.216,24.409-44.684c14.258,14.45,29.355,21.24,45.05,19.825c32.641-2.849,53.898-40.032,54.809-41.59
		l3.767-6.683l-6.214-4.5c-0.42-0.308-31.578-22.203-66.906-11.186c11.928-15.415,24.82-30.119,38.515-44.091
		c9.383,14.464,20.82,22.704,34.14,24.32c28.087,3.45,52.71-24.123,53.746-25.288l4.384-4.973l-4.455-4.892
		c-0.259-0.322-21.802-23.503-52.621-21.596c15.142-12.767,31.096-24.668,47.836-35.641c5.731,14.379,14.418,23.713,25.943,27.681
		c24.802,8.534,52.469-11.736,53.639-12.584l4.938-3.67l-3.089-5.312c-0.187-0.336-14.704-24.668-42.05-29.543
		c10.731-5.696,21.632-11.133,32.863-16.084c3.258-1.442,4.732-5.236,3.294-8.503c-1.454-3.268-5.24-4.71-8.499-3.295
		c-11.892,5.237-23.427,11.026-34.766,17.084c9.509-26.703-5.026-50.907-5.696-51.965l-3.224-5.241l-5.553,2.603
		c-0.982,0.455-24.283,11.526-33.399,31.122c-5.053,10.87-6.991,27.333,9.223,46.469c-17.374,11.356-33.962,23.695-49.675,36.939
		c4.009-30.274-16.74-52.527-17.651-53.509l-4.571-4.803l-5.285,3.991c-0.946,0.701-23.025,17.589-28.239,40.301
		c-2.893,12.57-1.231,30.327,20.043,46.866c-13.998,14.267-27.211,29.252-39.407,44.997c-2.143-36.059-31.658-56.777-32.944-57.656
		l-6.357-4.343l-5.026,5.785c-0.883,1.022-21.855,25.493-22.292,52.478c-0.232,15.169,6.089,35.269,35.256,48.893
		c-9.133,14.852-17.561,30.172-25.167,45.89c-9.589-34.845-42.782-48.983-44.229-49.577l-7.098-2.937l-3.705,6.719
		c-0.669,1.183-16.097,29.484-10.909,55.974c2.919,14.882,13.258,33.22,44.675,40.483c-5.875,16.382-10.918,33.095-15.124,50.089
		c-16.624-32.055-52.005-38.983-53.558-39.256l-7.544-1.388l-2.222,7.33c-0.42,1.295-9.607,32.18,0.964,57.013
		c5.946,13.936,19.891,29.73,52.094,30.319c-2.313,17.168-3.831,34.546-4.384,52.089c-22.909-27.855-58.951-27.284-60.522-27.225
		l-7.669,0.21l-0.661,7.638c-0.116,1.344-2.723,33.475,12.803,55.562c8.705,12.388,25.623,24.936,57.219,18.847
		c1.276,17.481,3.464,34.738,6.455,51.732c-28.194-22.352-63.192-14.321-64.736-13.937l-7.454,1.804l0.955,7.606
		c0.152,1.348,4.294,33.31,24.078,51.684c11.052,10.285,30.104,19.029,59.566,6.668c4.811,16.669,10.517,32.966,16.954,48.911
		c-32.096-15.668-64.388-0.647-65.78,0.063l-6.929,3.303l2.51,7.231c0.446,1.277,11.124,31.694,34.3,45.559
		c12.919,7.741,33.318,12.33,59.495-5.759c8.125,15.151,16.918,29.891,26.507,44.108c-34.47-8.396-62.7,12.87-63.941,13.829
		l-6.062,4.665l3.938,6.58c0.687,1.166,17.471,28.685,43.032,37.417c14.24,4.884,35.104,5.129,56.906-17.923
		c11.115,13.098,22.918,25.619,35.345,37.564c-35.559-1.12-58.817,25.61-59.825,26.815l-4.973,5.83l5.232,5.616
		c0.92,0.986,23.078,24.413,49.871,27.654c14.954,1.799,35.443-2.29,52.005-29.462c13.614,10.486,27.837,20.316,42.586,29.444
		c-35.203,6.187-52.469,37.319-53.219,38.707l-3.661,6.745l6.276,4.397c1.134,0.776,27.676,19.092,54.549,16.682
		c15.043-1.339,34.292-9.647,44.817-39.854c22.347,10.687,45.684,19.896,69.923,27.426c0.634,0.21,1.295,0.29,1.911,0.29
		c2.758,0,5.312-1.767,6.169-4.535C456.527,1117.174,454.635,1113.558,451.224,1112.5z M152.9,607.782
		c-0.045,11.463-2.027,31.725-14.472,42.514c-7.919,6.901-19.543,9.052-34.569,6.432c-0.071-0.361-0.107-0.781-0.197-1.174
		C110.466,619.531,138.633,610.184,152.9,607.782z M391.88,224.868c-7.964,4.579-22.81,11.307-35.238,6.999
		c-7.981-2.719-14.124-9.932-18.302-21.396c0.223-0.183,0.464-0.392,0.723-0.602C366.74,200.15,384.506,215.957,391.88,224.868z
		 M323.127,165.314c4.303-9.28,13.883-16.802,20.775-21.146c3.187,8.013,7.089,22.936,0.197,37.836
		c-2.607,5.651-6.634,10.901-11.937,15.717c-0.322,0.13-0.678,0.263-0.982,0.384C320.922,186.571,318.271,175.8,323.127,165.314z
		 M314.744,279.6c-7.365,6.606-21.507,17.021-35.595,15.276c-9.018-1.094-17.106-7.307-24.097-18.454
		c0.197-0.254,0.429-0.508,0.643-0.794C282.693,259.173,304.959,271.859,314.744,279.6z M228.903,232.211
		c2.464-10.74,10.864-20.833,17.15-26.94c5.17,7.731,12.624,22.587,8.696,39.845c-1.482,6.553-4.545,12.99-9.043,19.23
		c-0.322,0.218-0.67,0.429-0.974,0.638C231.331,255.119,226.135,244.352,228.903,232.211z M186.469,360.048
		c26.658-25.159,54.95-16.16,67.887-9.709c-6.731,9.254-20.266,24.466-36.666,25.881c-10.481,0.933-21.132-4.161-31.756-15.119
		C186.112,360.772,186.299,360.414,186.469,360.048z M145.66,317.302c0.206-12.772,7.276-26.221,12.954-34.671
		c7.705,7.508,19.74,22.552,19.444,43.059c-0.107,7.785-2.026,15.816-5.624,24.003c-0.294,0.316-0.634,0.629-0.946,0.937
		C153.936,342.684,145.446,331.711,145.66,317.302z M138.303,452.001c20.838-30.145,50.398-27.217,64.388-23.619
		c-4.696,10.45-14.749,28.154-30.506,32.948c-10.035,3.075-21.525,0.325-34.212-8.196
		C138.08,452.786,138.213,452.394,138.303,452.001z M89.486,418.669c-2.473-12.53,1.678-27.149,5.463-36.604
		c9.116,5.74,24.016,17.962,27.971,38.077c1.508,7.646,1.304,15.905-0.509,24.641c-0.232,0.367-0.5,0.759-0.741,1.121
		C102.851,441.787,92.272,432.828,89.486,418.669z M110.288,551.966c14.124-33.832,43.621-37.117,58.084-36.497
		c-2.411,11.2-8.58,30.6-22.99,38.568c-9.195,5.102-20.989,4.785-35.167-0.902C110.234,552.769,110.288,552.367,110.288,551.966z
		 M85.995,656.756c-18.864,3.879-32.149,0-40.469-11.799c-7.339-10.441-9.517-25.485-9.901-35.667
		c10.66,1.549,29.247,6.651,41.068,23.409c4.463,6.388,7.633,13.999,9.543,22.717C86.165,655.863,86.075,656.309,85.995,656.756z
		 M92.762,549.439c-19.267-0.103-31.471-6.682-37.149-19.936c-5.017-11.736-4.009-26.904-2.259-36.943
		c10.097,3.723,27.203,12.579,35.274,31.435c3.08,7.169,4.589,15.276,4.607,24.195C93.102,548.627,92.922,549.037,92.762,549.439z
		 M59.666,759.988c-9.356-8.686-14.615-22.953-17.088-32.836c10.731-0.692,29.98,0.42,45.006,14.382
		c5.705,5.285,10.392,12.084,14.052,20.217c0.045,0.455,0.053,0.902,0.089,1.339C84.057,770.823,70.255,769.8,59.666,759.988z
		 M118.751,758.274c-0.857-36.653,24.775-51.656,38.22-56.977c2.33,11.218,4.607,31.449-5.312,44.603
		c-6.338,8.392-17.239,12.914-32.497,13.477C119.046,759.025,118.902,758.632,118.751,758.274z M97.405,869.574
		c-10.946-6.553-19.061-19.432-23.543-28.565c10.356-2.915,29.417-5.826,47.014,4.691c6.696,4.004,12.687,9.656,17.962,16.856
		c0.134,0.437,0.241,0.875,0.339,1.304C123.527,875.104,109.796,876.966,97.405,869.574z M154.828,855.601
		c-8.436-35.675,13.499-55.683,25.551-63.668c4.643,10.486,11.045,29.792,4.072,44.72c-4.438,9.531-14.178,16.213-28.953,19.944
		C155.266,856.276,155.079,855.923,154.828,855.601z M157.106,968.9c-12.079-4.133-22.668-15.03-28.962-23.038
		c9.517-5.009,27.56-11.816,46.979-5.192c7.356,2.527,14.4,6.835,21.052,12.758c0.232,0.411,0.42,0.813,0.624,1.206
		C183.8,968.883,170.756,973.565,157.106,968.9z M210.396,943.299c-15.687-33.14,1.606-57.272,11.731-67.592
		c6.713,9.298,17.007,26.859,13.284,42.902c-2.384,10.249-10.5,18.812-24.168,25.52
		C210.949,943.858,210.672,943.581,210.396,943.299z M236.161,1053.647c-12.66-1.53-25.293-9.981-33.114-16.507
		c8.259-6.884,24.507-17.293,44.854-14.843c7.722,0.933,15.517,3.688,23.275,8.107c0.268,0.339,0.553,0.691,0.839,1.049
		C262.275,1048.081,250.499,1055.375,236.161,1053.647z M283.952,1018.164c-0.331-0.201-0.67-0.42-1.009-0.63
		c-22.23-29.158-10.303-56.357-2.535-68.548c8.49,7.682,22.212,22.735,21.882,39.189
		C302.111,998.697,295.924,1008.763,283.952,1018.164z M331.1,1120.112c-12.687,1.146-26.828-4.5-35.81-9.263
		c6.642-8.446,20.373-21.999,40.791-23.851c7.741-0.683,15.937,0.384,24.427,3.094c0.348,0.276,0.714,0.567,1.062,0.852
		C355.499,1109.223,345.465,1118.825,331.1,1120.112z M370.471,1075.481c-0.357-0.138-0.741-0.29-1.116-0.42
		c-27.801-23.896-21.792-52.982-16.748-66.525c9.91,5.767,26.454,17.623,29.578,33.787
		C384.194,1052.639,380.239,1063.772,370.471,1075.481z"/>
	<path fill-rule="evenodd" clip-rule="evenodd" fill="#252233" d="M687.356,526.82c-0.437,1.562,0.491,3.205,2.072,3.651
		c1.544,0.429,3.321-0.21,3.777-1.799c0.437-1.576-0.107-3.759-1.661-4.214C689.937,524.021,687.776,525.236,687.356,526.82z"/>
	<path fill-rule="evenodd" clip-rule="evenodd" fill="#252233" d="M681.214,521.499c-0.804,0.915-0.723,2.312,0.187,3.107
		c0.919,0.821,2.312,0.964,3.133,0.045c0.794-0.906,1.143-2.558,0.232-3.361C683.866,520.495,682.026,520.58,681.214,521.499z"/>
	<path fill-rule="evenodd" clip-rule="evenodd" fill="#252233" d="M694.258,554.648c-2.303,0.321-4.83,2.254-4.526,4.544
		c0.09,0.687,0.446,1.335,0.911,1.893h7.553c0.384-0.732,0.652-1.589,0.517-2.504C698.409,556.291,696.552,554.34,694.258,554.648z"
		/>
	<path fill-rule="evenodd" clip-rule="evenodd" fill="#252233" d="M693.053,518.718c-0.794,0.919-0.706,2.308,0.197,3.111
		c0.901,0.803,2.294,0.96,3.125,0.045c0.803-0.92,1.16-2.562,0.231-3.375C695.704,517.696,693.864,517.821,693.053,518.718z"/>
	<path fill-rule="evenodd" clip-rule="evenodd" fill="#252233" d="M686.5,551.153c0.473-1.58-0.027-3.785-1.598-4.245
		c-1.553-0.473-3.741,0.696-4.232,2.272c-0.455,1.553,0.437,3.205,1.991,3.687C684.214,553.327,686.026,552.707,686.5,551.153z"/>
	<path fill-rule="evenodd" clip-rule="evenodd" fill="#252233" d="M680.554,558.063c-0.911,0.585-1.384,1.853-1.358,3.031h5.964
		c0.045-0.531-0.009-1.071-0.33-1.553C683.937,558.188,681.928,557.139,680.554,558.063z"/>
	<path fill-rule="evenodd" clip-rule="evenodd" fill="#252233" d="M684.115,538.168c-0.643,2.236,0.679,4.535,2.911,5.156
		c2.223,0.629,4.749-0.313,5.375-2.54c0.624-2.214-0.143-5.33-2.384-5.95C687.776,534.204,684.741,535.958,684.115,538.168z"/>
	<path fill-rule="evenodd" clip-rule="evenodd" fill="#252233" d="M713.399,529.396c-1.581-0.438-3.75,0.768-4.17,2.353
		c-0.455,1.589,0.464,3.214,2.053,3.651c1.581,0.446,3.357-0.219,3.795-1.79C715.506,532.034,714.97,529.842,713.399,529.396z"/>
	<path fill-rule="evenodd" clip-rule="evenodd" fill="#252233" d="M695.311,545.386c-1.606,0.263-2.732,1.772-2.473,3.397
		c0.26,1.594,1.598,2.955,3.224,2.692c1.607-0.241,3.357-1.643,3.116-3.259C698.918,546.6,696.936,545.131,695.311,545.386z"/>
	<path fill-rule="evenodd" clip-rule="evenodd" fill="#252233" d="M712.577,549.519c-0.669,1.303-0.125,2.91,1.169,3.571
		c1.313,0.656,2.991,0.388,3.652-0.915c0.669-1.321,0.589-3.339-0.741-4.009C715.354,547.502,713.247,548.207,712.577,549.519z"/>
	<path fill-rule="evenodd" clip-rule="evenodd" fill="#252233" d="M695.543,537.427c-0.804,0.906-0.714,2.326,0.206,3.102
		c0.893,0.812,2.295,0.951,3.116,0.054c0.813-0.929,1.152-2.571,0.232-3.366C698.195,536.422,696.374,536.525,695.543,537.427z"/>
	<path fill-rule="evenodd" clip-rule="evenodd" fill="#252233" d="M703.418,523.097c-2.223-0.62-5.286,1.107-5.893,3.33
		c-0.643,2.227,0.67,4.531,2.911,5.187c2.214,0.603,4.74-0.33,5.384-2.558C706.435,526.838,705.676,523.718,703.418,523.097z"/>
	<path fill-rule="evenodd" clip-rule="evenodd" fill="#252233" d="M805.302,508.313l-3.125,0.522l0.839-2.875
		c0.036-0.112,4.749-12.057,0.152-17.753c-2.321-2.866-6.803-3.759-13.338-2.656l-0.294-1.754l0.178,1.772
		c-7.16,1.241-11.409,3.66-12.668,7.218c-2.134,6.017,4.669,13.847,4.732,13.927l2.142,2.446l-3.223,0.482l-0.026,0.004
		c-1.688,0.272-13.098,2.415-15.463,8.825c-1.286,3.446,0.223,7.776,4.463,12.905c4.607,5.508,8.776,7.995,12.473,7.365
		c5.285-0.888,8.874-8.289,9.82-11.066l1.036-3.111l2.035,2.567c0.072,0.089,8.134,10.231,15.392,9.008
		c3.634-0.603,6.625-4.08,8.928-10.325c2.482-6.723,2.535-11.633,0.143-14.481C815.685,506.715,806.355,508.13,805.302,508.313z"/>
	<path fill-rule="evenodd" clip-rule="evenodd" fill="#252233" d="M765.77,453.92c1.999-4.33-13.66-13.356-13.66-13.356
		s16.302-7.736,14.66-12.227c-1.643-4.491-19.097,0.228-19.097,0.228s6.044-17.047,1.696-19.048
		c-4.339-1.999-13.347,13.682-13.347,13.682s-7.759-16.329-12.25-14.678c-4.472,1.678,0.223,19.111,0.223,19.111
		s-17.007-6.058-19.025-1.706c-1.982,4.326,13.668,13.352,13.668,13.352s-16.311,7.776-14.65,12.239
		c1.643,4.473,19.105-0.219,19.105-0.219s-6.08,17.039-1.723,19.021c4.348,1.986,13.357-13.664,13.357-13.664
		s7.758,16.32,12.239,14.673c4.491-1.678-0.223-19.119-0.223-19.119S763.76,458.255,765.77,453.92z M743.039,448.198
		c0,0,3.179,11.824,0.179,12.914c-3.036,1.138-8.267-9.905-8.267-9.905s-6.089,10.588-9.017,9.245
		c-2.937-1.348,1.143-12.857,1.143-12.857s-11.785,3.192-12.91,0.153c-1.115-3.01,9.928-8.25,9.928-8.25s-10.588-6.071-9.249-9.017
		c1.338-2.937,12.865,1.16,12.865,1.16s-3.214-11.802-0.152-12.905c3-1.107,8.249,9.901,8.249,9.901s6.098-10.588,9.035-9.218
		c2.911,1.335-1.178,12.843-1.178,12.843s11.802-3.187,12.91-0.156c1.107,3.022-9.918,8.267-9.918,8.267s10.606,6.071,9.24,8.999
		C754.556,452.313,743.039,448.198,743.039,448.198z"/>
	<path fill-rule="evenodd" clip-rule="evenodd" fill="#252233" d="M751.887,303.209c-145.318-83.891-331.115-34.105-415.002,111.183
		c-27.078,46.929-40.148,98.09-40.63,148.662h35.068c0.464-44.675,11.999-89.805,35.881-131.168
		C441.296,303.53,606.023,259.4,734.389,333.51c84.984,49.072,132.998,137.869,134.256,229.544h35.113
		C902.535,459.322,848.236,358.843,751.887,303.209z"/>
	<path fill-rule="evenodd" clip-rule="evenodd" fill="#252233" d="M467.758,338.528c-38.613,22.332-72.101,54.687-95.974,96.023
		c-23.052,39.903-34.39,83.417-35.176,126.534h259.666L467.758,338.528z M450.768,367.762c2.437-4.254,7.902-5.722,12.16-3.258
		c4.258,2.446,5.723,7.905,3.258,12.168c-2.445,4.259-7.91,5.737-12.177,3.255C449.76,377.48,448.295,372.016,450.768,367.762z
		 M417.012,542.408c-20.15,9.164-43.933,0.241-53.075-19.905c-9.151-20.168-0.223-43.934,19.9-53.08
		c20.159-9.151,43.925-0.237,53.076,19.94C446.081,509.509,437.145,533.257,417.012,542.408z M464.955,543.176
		c-2.446,4.272-7.902,5.714-12.178,3.268c-4.249-2.455-5.714-7.923-3.277-12.191c2.456-4.254,7.946-5.723,12.187-3.259
		C465.955,533.449,467.437,538.922,464.955,543.176z M462.276,439.662c0.527,10.311-10.088,13.298-10.088,13.298
		s-2.732-10.737,7.053-15.691c-16.214,2.281-20.436-14.071-20.436-14.071s12.098-2.776,19.23,6.643
		c0.063-1.451,0.492-3.032,1.607-4.79c1.223,0.929,2.089,1.889,2.679,2.875c1.268-2.902,3.794-5.768,8.713-7.415
		c2.411,9.321-3.464,13.848-7.035,15.691c5.169-0.264,15.766,0.892,19.793,14.017C470.57,453.304,464.562,444.599,462.276,439.662z
		 M498.184,536.351c-16.99-2.5-28.729-18.32-26.211-35.323c2.517-17.003,18.346-28.739,35.345-26.221
		c16.99,2.504,28.729,18.356,26.194,35.332C531.003,527.133,515.209,538.877,498.184,536.351z"/>
	<path fill-rule="evenodd" clip-rule="evenodd" fill="#252233" d="M570.455,368.52c2.669-2.521,3.232-7.039,1.669-13.481
		l1.714-0.446l-1.741,0.325c-1.759-7.052-4.473-11.106-8.133-12.119c-6.152-1.688-13.482,5.633-13.553,5.731l-2.286,2.317
		l-0.688-3.191l-0.036-0.017c-0.384-1.661-3.348-12.888-9.918-14.794c-3.535-1.022-7.741,0.813-12.526,5.428
		c-5.17,4.982-7.339,9.321-6.455,12.959c1.285,5.232,8.928,8.263,11.776,8.99l3.17,0.804l-2.42,2.228
		c-0.116,0.08-9.597,8.842-7.874,15.99c0.866,3.58,4.553,6.325,10.954,8.168c6.901,1.974,11.776,1.678,14.464-0.923
		c4.33-4.143,2.214-13.352,1.982-14.392l-0.759-3.066l2.919,0.629C552.832,369.703,565.09,373.511,570.455,368.52z"/>
	<path fill-rule="evenodd" clip-rule="evenodd" fill="#252233" d="M688.383,476.222c-2.222-1.295-5.062-0.509-6.357,1.71
		c-1.276,2.205-0.527,5.035,1.688,6.334c2.214,1.268,5.071,0.5,6.338-1.719C691.348,480.346,690.58,477.494,688.383,476.222z"/>
	<path fill-rule="evenodd" clip-rule="evenodd" fill="#252233" d="M672.054,539.636c-0.375,1.598,0.929,3.705,2.509,4.08
		c1.598,0.384,3.196-0.585,3.571-2.192c0.393-1.571-0.347-3.33-1.937-3.705C674.607,537.444,672.438,538.038,672.054,539.636z"/>
	<path fill-rule="evenodd" clip-rule="evenodd" fill="#252233" d="M516.022,489.52c0.982-1.094,1.152-2.781,0.09-3.759
		c-1.09-0.995-3.089-1.451-4.071-0.357c-0.983,1.094-0.884,3.312,0.214,4.299C513.326,490.698,515.022,490.627,516.022,489.52z"/>
	<path fill-rule="evenodd" clip-rule="evenodd" fill="#252233" d="M672.197,551.885c0.902,0.795,2.304,0.946,3.116,0.036
		c0.795-0.915,1.17-2.549,0.25-3.37c-0.92-0.804-2.776-0.692-3.544,0.232C671.197,549.676,671.277,551.073,672.197,551.885z"/>
	<path fill-rule="evenodd" clip-rule="evenodd" fill="#252233" d="M679.062,527.378c-1.536,0.558-2.58,2.794-2.018,4.343
		c0.553,1.536,2.232,2.339,3.786,1.772c1.535-0.549,2.597-2.116,2.062-3.66C682.339,528.293,680.616,526.838,679.062,527.378z"/>
	<path fill-rule="evenodd" clip-rule="evenodd" fill="#252233" d="M702.847,554.229c-0.455,1.589,0.473,3.223,2.044,3.66
		c1.572,0.437,3.374-0.219,3.803-1.781c0.446-1.598-0.107-3.776-1.669-4.223C705.436,551.466,703.284,552.675,702.847,554.229z"/>
	<path fill-rule="evenodd" clip-rule="evenodd" fill="#252233" d="M702.667,542.511c-0.607,2.236,0.706,4.526,2.937,5.165
		c2.223,0.612,4.732-0.326,5.365-2.544c0.616-2.228-0.143-5.348-2.357-5.968C706.364,538.529,703.31,540.266,702.667,542.511z"/>
	<path fill-rule="evenodd" clip-rule="evenodd" fill="#252233" d="M731.737,338.099c-0.161-0.08-0.321-0.156-0.455-0.237
		L602.372,561.094l66.048-0.009c-2.366-3.754-4-8.053-4.579-12.753c-2.081-17.048,10.097-32.591,27.167-34.662
		c17.044-2.08,32.551,10.084,34.614,27.136c0.892,7.365-0.867,14.454-4.535,20.28l142.283,0.009
		C861.449,471.954,814.418,385.832,731.737,338.099z M693.776,484.703c-2.473,4.254-7.919,5.696-12.16,3.25
		c-4.286-2.464-5.749-7.906-3.276-12.187c2.456-4.245,7.901-5.705,12.16-3.25C694.767,474.963,696.222,480.44,693.776,484.703z
		 M695.311,438.359c0.875-22.123,19.499-39.345,41.613-38.47c22.123,0.848,39.371,19.476,38.515,41.59
		c-0.875,22.114-19.507,39.354-41.63,38.515C711.703,479.114,694.471,460.491,695.311,438.359z M810.998,539.627
		c-6.865,1.156-13.597-4.727-16.81-8.098c-1.742,3.616-5.473,9.705-11.446,10.7c-5.017,0.83-10.33-2.044-15.793-8.597
		c-5.116-6.156-6.821-11.664-5.054-16.383c2.411-6.526,10.865-9.419,15.419-10.535c-2.259-3.268-5.58-9.464-3.589-15.097
		c1.714-4.852,6.866-8.075,15.392-9.535l0.125-0.027c7.901-1.335,13.507-0.027,16.694,3.933c4.321,5.392,2.581,14.084,1.286,18.516
		c4.178-0.353,11.132-0.098,15.008,4.558c3.249,3.897,3.401,9.972,0.437,17.976C819.872,534.561,815.971,538.788,810.998,539.627z"
		/>
	<path fill-rule="evenodd" clip-rule="evenodd" fill="#252233" d="M459.554,534.699c-2.206-1.277-5.054-0.496-6.321,1.705
		c-1.295,2.219-0.545,5.04,1.678,6.334c2.214,1.277,5.071,0.522,6.33-1.705C462.527,538.833,461.776,535.976,459.554,534.699z"/>
	<path fill-rule="evenodd" clip-rule="evenodd" fill="#252233" d="M507.46,502.269c-1.652-0.17-3.58,1.37-3.758,2.986
		c-0.197,1.634,0.982,3.111,2.597,3.285c1.635,0.174,3.312-0.759,3.464-2.384C509.943,504.545,509.085,502.47,507.46,502.269z"/>
	<path fill-rule="evenodd" clip-rule="evenodd" fill="#252233" d="M502.863,497.399c1.999,1.165,4.562,0.536,5.758-1.442
		c1.188-2,0.955-4.674-1.035-5.852c-1.982-1.214-5.178-1.295-6.366,0.705C500.032,492.787,500.889,496.202,502.863,497.399z"/>
	<path fill-rule="evenodd" clip-rule="evenodd" fill="#252233" d="M415.674,498.992c0,0,11.115-14.271,7.615-17.521
		c-3.482-3.241-16.981,8.781-16.981,8.781s-2.232-17.945-6.999-17.789c-4.768,0.174-5.794,18.217-5.794,18.217
		s-14.275-11.106-17.516-7.629c-3.267,3.513,8.767,16.985,8.767,16.985s-17.945,2.232-17.793,7.008
		c0.178,4.781,18.213,5.794,18.213,5.794s-11.107,14.258-7.598,17.525c3.473,3.268,16.954-8.772,16.954-8.772s2.259,17.923,7,17.78
		c4.794-0.156,5.812-18.217,5.812-18.217s14.258,11.097,17.516,7.629c3.277-3.477-8.785-16.985-8.785-16.985
		s17.972-2.227,17.784-7.008C433.726,500.019,415.674,498.992,415.674,498.992z M411.013,509.884c0,0,8.125,9.115,5.937,11.472
		c-2.214,2.361-11.847-5.169-11.847-5.169s-0.697,12.195-3.91,12.316c-3.224,0.107-4.741-12.012-4.741-12.012
		s-9.088,8.142-11.437,5.959c-2.366-2.227,5.134-11.856,5.134-11.856s-12.196-0.683-12.303-3.915
		c-0.108-3.223,12.035-4.727,12.035-4.727s-8.151-9.106-5.955-11.463c2.205-2.352,11.838,5.147,11.838,5.147
		s0.687-12.191,3.928-12.285c3.205-0.116,4.696,12.003,4.696,12.003s9.133-8.124,11.481-5.95c2.358,2.214-5.151,11.856-5.151,11.856
		s12.186,0.674,12.284,3.906C423.137,508.375,411.013,509.884,411.013,509.884z"/>
	<path fill-rule="evenodd" clip-rule="evenodd" fill="#252233" d="M501.496,525.151c-1.008,0.656-1.357,2.455-0.731,3.495
		c0.669,1.013,2.044,1.277,3.08,0.638c1.018-0.674,1.518-1.995,0.857-3.009C504.032,525.262,502.524,524.486,501.496,525.151z"/>
	<path fill-rule="evenodd" clip-rule="evenodd" fill="#252233" d="M495.435,520.807c-1.429-0.795-3.304-0.54-4.098,0.857
		c-0.794,1.442-0.776,3.696,0.652,4.491c1.446,0.795,3.803,0.103,4.598-1.339C497.389,523.383,496.872,521.584,495.435,520.807z"/>
	<path fill-rule="evenodd" clip-rule="evenodd" fill="#252233" d="M517.317,505.474c-2.295-0.308-4.651,0.96-4.955,3.268
		c-0.321,2.272,0.893,5.258,3.188,5.558c2.276,0.304,5.07-1.817,5.374-4.134C521.209,507.893,519.602,505.786,517.317,505.474z"/>
	<path fill-rule="evenodd" clip-rule="evenodd" fill="#252233" d="M523.763,501.925c-0.697,0.995-0.393,2.812,0.598,3.513
		c0.991,0.701,2.349,0.482,3.072-0.522c0.696-0.982,0.66-2.415-0.313-3.12C526.146,501.113,524.45,500.947,523.763,501.925z"/>
	<path fill-rule="evenodd" clip-rule="evenodd" fill="#252233" d="M496.827,499.434c-1.036,0.674-1.411,2.464-0.75,3.486
		c0.66,1.022,2.035,1.321,3.062,0.647c1.027-0.665,1.519-1.982,0.875-2.995C499.345,499.559,497.845,498.765,496.827,499.434z"/>
	<path fill-rule="evenodd" clip-rule="evenodd" fill="#252233" d="M513.067,495.707c-0.83,1.406-0.232,3.808,1.169,4.647
		c1.384,0.848,3.205,0.384,4.062-1.022c0.831-1.397,0.679-3.268-0.723-4.134C516.147,494.368,513.907,494.305,513.067,495.707z"/>
	<path fill-rule="evenodd" clip-rule="evenodd" fill="#252233" d="M502.398,515.696c-0.893,1.388-0.313,3.817,1.053,4.665
		c1.411,0.893,3.224,0.455,4.089-0.924c0.857-1.375,0.741-3.277-0.625-4.143C505.505,514.411,503.273,514.335,502.398,515.696z"/>
	<path fill-rule="evenodd" clip-rule="evenodd" fill="#252233" d="M498.487,506.853c-1.981-1.187-5.178-1.277-6.374,0.719
		c-1.178,1.982-0.322,5.379,1.643,6.562c1.99,1.214,4.579,0.558,5.749-1.433C500.702,510.723,500.461,508.041,498.487,506.853z"/>
	<path fill-rule="evenodd" clip-rule="evenodd" fill="#252233" d="M514.576,519.129c-1.553,0.482-3.089,2.161-2.589,3.714
		c0.5,1.549,2.688,2.692,4.25,2.174c1.571-0.495,2.41-2.174,1.902-3.727C517.665,519.749,516.147,518.633,514.576,519.129z"/>
	<path fill-rule="evenodd" clip-rule="evenodd" fill="#252233" d="M614.773,509.527c-0.857,0.263-2.812,1.504-2.527,2.375
		c0.294,0.911,2.107,1.049,3.696,0.808c1.553-0.254,2.589-1.987,2.392-2.826C618.166,509.063,615.969,509.152,614.773,509.527z"/>
	<path fill-rule="evenodd" clip-rule="evenodd" fill="#252233" d="M478.123,496.876c-1.027,0.674-1.392,2.491-0.741,3.477
		c0.643,1.031,2.044,1.335,3.044,0.674c1.027-0.674,1.535-1.995,0.875-3.018C480.632,496.988,479.133,496.22,478.123,496.876z"/>
	<path fill-rule="evenodd" clip-rule="evenodd" fill="#252233" d="M485.409,513.129c-1.634,0.129-3.518,1.397-3.375,3.031
		c0.116,1.625,2.018,3.223,3.652,3.102c1.625-0.134,2.848-1.567,2.705-3.192C488.266,514.437,487.033,512.996,485.409,513.129z"/>
	<path fill-rule="evenodd" clip-rule="evenodd" fill="#252233" d="M477.668,509.036c-1.008,0.665-1.392,2.464-0.741,3.486
		c0.67,1.031,2.054,1.33,3.063,0.656c1.018-0.679,1.527-1.991,0.866-3.013C480.177,509.161,478.695,508.375,477.668,509.036z"/>
	<path fill-rule="evenodd" clip-rule="evenodd" fill="#252233" d="M609.345,507.782c-0.634,0.219-2.169,1.17-1.911,1.861
		c0.232,0.687,1.616,0.795,2.821,0.612c1.206-0.179,1.991-1.54,1.849-2.196C611.961,507.42,610.283,507.509,609.345,507.782z"/>
	<path fill-rule="evenodd" clip-rule="evenodd" fill="#252233" d="M605.39,511.799c-2.563,0.054-4.607,2.638-4.491,4.044
		c0.116,1.366,3.634,1.687,5.705,1.357c1.384-0.237,4.83-1.835,4.535-3.321C610.854,512.393,607.961,511.737,605.39,511.799z"/>
	<path fill-rule="evenodd" clip-rule="evenodd" fill="#252233" d="M597.167,515.607c-1.161-0.393-2.509,0.446-2.679,1.103
		c-0.161,0.647,1.358,1.33,2.349,1.495c0.669,0.129,2.446-0.045,2.562-0.754C599.498,516.736,598.328,516.009,597.167,515.607z"/>
	<path fill-rule="evenodd" clip-rule="evenodd" fill="#252233" d="M605.345,450.813c4.473-1.66-0.223-19.11-0.223-19.11
		s17.044,6.053,19.034,1.722c1.991-4.352-13.686-13.369-13.686-13.369s16.329-7.749,14.686-12.235
		c-1.678-4.482-19.114,0.245-19.114,0.245s6.044-17.052,1.688-19.048c-4.312-1.991-13.321,13.668-13.321,13.668
		s-7.767-16.324-12.249-14.664c-4.491,1.652,0.241,19.102,0.241,19.102s-17.062-6.058-19.043-1.688
		c-2.019,4.334,13.677,13.343,13.677,13.343s-16.329,7.776-14.686,12.24c1.643,4.472,19.133-0.237,19.133-0.237
		s-6.062,17.047-1.723,19.038c4.33,2.004,13.347-13.664,13.347-13.664S600.873,452.465,605.345,450.813z M584.293,439.943
		c-2.937-1.348,1.16-12.856,1.16-12.856s-11.784,3.182-12.891,0.169c-1.125-3.035,9.892-8.258,9.892-8.258
		s-10.562-6.089-9.213-9.017c1.348-2.928,12.82,1.16,12.82,1.16s-3.151-11.82-0.152-12.922c3.027-1.098,8.276,9.91,8.276,9.91
		s6.08-10.588,9.009-9.227c2.946,1.344-1.152,12.851-1.152,12.851s11.776-3.187,12.883-0.156c1.134,3.022-9.874,8.259-9.874,8.259
		s10.588,6.089,9.24,9.008c-1.357,2.924-12.865-1.165-12.865-1.165s3.179,11.798,0.17,12.923c-3.044,1.12-8.285-9.905-8.285-9.905
		S587.222,441.296,584.293,439.943z"/>
	<path fill-rule="evenodd" clip-rule="evenodd" fill="#252233" d="M494.229,488.243c1.42,0.839,3.232,0.375,4.08-1.013
		c0.83-1.415,0.661-3.294-0.723-4.143c-1.411-0.839-3.678-0.893-4.5,0.491C492.239,484.984,492.828,487.395,494.229,488.243z"/>
	<path fill-rule="evenodd" clip-rule="evenodd" fill="#252233" d="M728.166,336.157c-82.645-46.036-179.985-42.778-257.336,0.593
		l128.498,222.571L728.166,336.157z M662.474,365.07c-1.829-0.612-3.695-1.773-5.544-3.799c1.616-1.286,3.17-2.018,4.661-2.424
		c-3.259-2.687-6.026-6.968-6.313-13.882c12.83,0.335,16.463,9.517,17.508,14.766c1.544-6.736,6.91-19.86,25.229-20.243
		c-0.901,18.088-14.257,22.623-21.4,23.738c13.401,3.085,13.348,17.771,13.348,17.771s-14.758-0.41-17.525-14.767
		c-3.018,21.601-25.525,21.034-25.525,21.034S647.788,370.766,662.474,365.07z M606.042,335.309
		c2.437-4.245,7.928-5.705,12.186-3.267c4.241,2.464,5.696,7.937,3.232,12.182c-2.446,4.263-7.901,5.723-12.177,3.267
		C605.051,345.036,603.569,339.567,606.042,335.309z M533.137,390.787c-7.696-2.223-12.222-5.813-13.41-10.687
		c-1.634-6.807,3.741-13.945,6.857-17.377c-3.767-1.478-10.053-4.737-11.508-10.638c-1.205-4.96,1.285-10.472,7.428-16.356
		c5.785-5.567,11.142-7.668,15.972-6.271c6.669,1.946,10.195,10.186,11.624,14.628c3.08-2.491,9.034-6.259,14.784-4.705
		c4.973,1.375,8.571,6.294,10.642,14.664l0.036,0.148c1.902,7.775,1,13.458-2.714,16.927c-5.044,4.692-13.837,3.616-18.365,2.648
		c0.644,4.116,0.929,11.088-3.455,15.288C547.35,392.586,541.341,393.17,533.137,390.787z M553.716,417.856
		c0.839-22.109,19.463-39.345,41.586-38.484c22.123,0.858,39.354,19.495,38.506,41.608c-0.866,22.096-19.481,39.345-41.604,38.497
		C570.08,458.616,552.832,439.979,553.716,417.856z M595.051,519.803c-6.508-1.303-14.57-9.803-15.606-15.499
		c-1.036-5.683,3.563-10.45,8.509-9.142c4,1.067,8.428,2.553,8.428,2.553s-6.178-17.641-7.143-20.03
		c-0.92-2.384-0.223-6.008,2.464-6.638c2.661-0.62,6.036-1.906,7.767-1.969c1.759-0.094,4.098-0.129,4.705,4.714
		c0.598,4.821,3.125,21.57,3.125,21.57s4.937-5.04,7.428-6.683c2.491-1.643,8.348-2.428,9.927,3.12
		c1.598,5.553,0.902,15.226-4.33,20.82C614.425,518.919,601.551,521.089,595.051,519.803z"/>
	<path fill-rule="evenodd" clip-rule="evenodd" fill="#252233" d="M611.434,343.786c2.232,1.285,5.054,0.522,6.348-1.714
		c1.267-2.201,0.517-5.031-1.705-6.325c-2.233-1.277-5.063-0.505-6.322,1.705C608.452,339.652,609.22,342.509,611.434,343.786z"/>
	<path fill-rule="evenodd" clip-rule="evenodd" fill="#252233" d="M456.143,376.221c2.223,1.282,5.071,0.531,6.347-1.705
		c1.286-2.191,0.509-5.031-1.696-6.325c-2.232-1.268-5.053-0.509-6.347,1.705C453.179,372.132,453.929,374.953,456.143,376.221z"/>
	<path fill-rule="evenodd" clip-rule="evenodd" fill="#252233" d="M490.729,490.819c-1.982-1.196-5.178-1.272-6.383,0.71
		c-1.152,1.982-0.331,5.392,1.651,6.571c1.991,1.196,4.563,0.558,5.749-1.433C492.953,494.685,492.73,492.002,490.729,490.819z"/>
	<path fill-rule="evenodd" clip-rule="evenodd" fill="#252233" d="M483.695,508.023c1.392,0.83,3.213,0.379,4.053-1.013
		c0.839-1.415,0.679-3.303-0.714-4.129c-1.411-0.848-3.669-0.919-4.508,0.487C481.686,504.782,482.284,507.179,483.695,508.023z"/>
	<path fill-rule="evenodd" clip-rule="evenodd" fill="#252233" d="M703.614,1005.416c-2.428-0.858-4.821-0.509-7.142,0.228
		c-8.741,2.776-16.748,7.137-24.632,11.691c-5.446,3.16-10.776,6.49-15.999,9.994c-5.089,3.388-10.116,6.964-14.901,10.754
		c-6.687,5.272-13.222,10.731-19.035,16.999c-3.116,3.352-6.285,6.682-9.257,10.169c-5.312,6.214-9.535,13.142-13.482,20.271
		c-7.848-6.232-15.703-12.459-23.48-18.758c-1.107-0.901-1.973-2.307-2.544-3.665c-1.286-3.066-1.965-6.316-2.036-9.669
		c-0.098-4.249-1.098-8.187-4-11.441c-1.821-2.044-3.634-4.098-5.526-6.061c-4.062-4.21-9-7.254-13.794-10.531
		c-3.151-2.165-6.366-4.246-9.534-6.392c-2.67-1.804-5.303-3.696-7.973-5.482c-5.401-3.58-10.811-7.147-16.24-10.683
		c-1.268-0.821-2.571-1.612-3.937-2.187c-1.313-0.568-2.572,0.647-2.072,1.982c0.366,0.937,1,1.861,1.75,2.517
		c11.141,9.352,22.346,18.673,33.533,28.007c1.071,0.879,2.258,1.643,3.169,2.665c0.483,0.514,0.509,1.455,0.751,2.2
		c-0.714-0.089-1.455-0.165-2.197-0.281c-0.036,0-0.071-0.054-0.107-0.063c-10.928-8.918-21.819-17.837-32.765-26.716
		c-1.937-1.589-4.026-3.013-6.106-4.406c-0.822-0.549-1.911-0.839-2.705,0.133c-0.786,0.933-0.42,1.928,0.294,2.683
		c1.508,1.598,3.027,3.16,4.633,4.611c6.045,5.321,12.089,10.615,18.168,15.878c4.839,4.156,9.758,8.218,14.58,12.405
		c0.482,0.429,0.544,1.353,0.804,2.036c-0.706-0.072-1.625,0.124-2.116-0.255c-6.366-4.977-12.677-10.03-19.016-15.07
		c-0.053,0.053-0.081,0.112-0.124,0.166c-3.295-2.759-6.571-5.514-9.848-8.267c-2.919-2.446-5.839-4.902-8.776-7.312
		c-1.554-1.268-3.214-1.469-3.956-0.549c-0.75,0.906-0.339,2.383,1.099,3.723c3.624,3.308,7.204,6.655,10.892,9.856
		c8.213,7.093,16.498,14.12,24.748,21.169c0.384,0.325,0.937,0.602,1.152,1.039c0.321,0.585,0.384,1.304,0.544,2
		c-0.643-0.102-1.437,0-1.964-0.322c-1.223-0.776-2.366-1.714-3.526-2.647c-7.045-5.678-14.08-11.334-21.088-17.056
		c-4.776-3.862-9.472-7.821-14.258-11.683c-0.562-0.428-1.883-0.683-2.213-0.357c-0.518,0.464-0.76,1.615-0.571,2.339
		c0.214,0.902,0.857,1.759,1.518,2.465c1.598,1.687,3.285,3.294,4.937,4.928c4.41,4.442,8.848,8.87,13.241,13.307
		c4.258,4.325,8.606,8.575,12.73,13.012c4.973,5.339,10.33,10.196,16.669,13.883c4,2.352,8.088,3.969,12.927,3.102
		c2.339-0.42,4.812-0.254,7.223-0.263c3.597,0,6.669,1.206,9.41,3.696c6.106,5.557,12.445,10.906,18.641,16.383
		c0.706,0.612,1.384,1.232,2.072,1.844c-2.411,1.951-4.865,3.839-7.294,5.776c-6.303,5.067-12.597,10.138-18.918,15.213
		c-7.454,5.977-14.927,11.954-22.355,17.972c-10.534,8.54-21.034,17.128-31.569,25.672c-1.062,0.866-1.474,1.928-1.562,3.196
		c-0.241,3.987,2.16,7.919,5.946,9.727c2.937,1.38,5.49,1.442,8.213-0.986c9.017-8.04,18.222-15.896,27.382-23.758
		c13.883-11.928,27.712-23.846,41.666-35.675c3.027-2.572,6.08-5.093,9.106-7.646c2.768,2.464,5.545,4.928,8.286,7.392
		c5.74,5.164,11.428,10.333,17.168,15.516c5.839,5.286,11.695,10.576,17.57,15.861c5,4.472,9.981,8.972,15.052,13.369
		c7.419,6.411,14.892,12.744,22.32,19.159c1.259,1.067,2.625,1.397,4.223,1.143c4.097-0.661,7.812-4.5,8.562-8.829
		c0.429-2.536-0.062-4.616-2.25-6.294c-3.107-2.357-6.08-4.91-9.124-7.357c-10.125-8.125-20.258-16.244-30.435-24.315
		c-6.339-5.017-12.731-9.968-19.106-14.94c-6.026-4.718-12.07-9.428-18.097-14.128c-1.741-1.367-3.49-2.728-5.231-4.08
		c5.624-4.71,11.231-9.437,16.838-14.146c-0.125-0.143-0.215-0.299-0.357-0.429c2.456-2.044,4.91-4.08,7.338-6.142
		c14.044-12.017,28.069-24.03,42.087-36.042c9.257-7.928,18.507-15.851,27.766-23.801
		C708.542,1012.16,707.506,1006.777,703.614,1005.416z"/>
</g>
</svg>
